<svg width="50" height="50" viewBox="0 0 50 50" fill="none" xmlns="http://www.w3.org/2000/svg">
<path d="M0 0H50V50H0V0Z" fill="black" fill-opacity="0.85"/>
<path d="M25.8475 18.44C25.8742 16.7333 26.1275 15.2133 26.6075 13.88C26.7942 13.32 27.0475 12.76 27.3675 12.2C27.6875 11.64 28.0875 11.1467 28.5675 10.72C29.0475 10.2933 29.6075 9.94667 30.2475 9.68C30.8875 9.41333 31.6475 9.28 32.5275 9.28C33.5408 9.36 34.4875 9.69333 35.3675 10.28C36.1142 10.7867 36.8208 11.5867 37.4875 12.68C38.1808 13.7467 38.6475 15.2533 38.8875 17.2C39.1008 19.0933 39.2208 20.88 39.2475 22.56C39.2742 24.24 39.2608 25.72 39.2075 27C39.1275 28.4933 39.0208 29.88 38.8875 31.16C38.7275 32.4667 38.3942 33.64 37.8875 34.68C37.6742 35.1333 37.4075 35.5733 37.0875 36C36.7675 36.4 36.3808 36.7733 35.9275 37.12C35.5008 37.44 35.0075 37.6933 34.4475 37.88C33.8875 38.0667 33.2475 38.16 32.5275 38.16C31.7275 38.16 31.0208 38.0267 30.4075 37.76C29.7942 37.4933 29.2608 37.1467 28.8075 36.72C28.3542 36.2667 27.9675 35.7733 27.6475 35.24C27.3542 34.68 27.1008 34.12 26.8875 33.56C26.4075 32.2267 26.1142 30.72 26.0075 29.04H24.5275C24.3675 30.7467 24.0208 32.2533 23.4875 33.56C23.2475 34.12 22.9542 34.68 22.6075 35.24C22.2875 35.7733 21.9008 36.2533 21.4475 36.68C20.9942 37.08 20.4608 37.4133 19.8475 37.68C19.2342 37.9467 18.5408 38.08 17.7675 38.08C16.6742 38.0533 15.6875 37.7733 14.8075 37.24C14.4342 37 14.0475 36.7067 13.6475 36.36C13.2742 36.0133 12.9275 35.5733 12.6075 35.04C12.2875 34.48 12.0075 33.84 11.7675 33.12C11.5542 32.3733 11.4075 31.5067 11.3275 30.52C11.1142 28.2 11.0075 26.16 11.0075 24.4C11.0342 22.6133 11.0875 21.0933 11.1675 19.84C11.2742 18.3733 11.4208 17.1067 11.6075 16.04C11.8208 14.7867 12.1808 13.6667 12.6875 12.68C12.9008 12.2533 13.1542 11.84 13.4475 11.44C13.7675 11.04 14.1275 10.68 14.5275 10.36C14.9542 10.04 15.4208 9.78667 15.9275 9.6C16.4608 9.41333 17.0475 9.32 17.6875 9.32C18.5675 9.32 19.3275 9.45333 19.9675 9.72C20.6075 9.98667 21.1675 10.3333 21.6475 10.76C22.1275 11.1867 22.5142 11.68 22.8075 12.24C23.1275 12.7733 23.3942 13.32 23.6075 13.88C24.0875 15.2133 24.3275 16.7333 24.3275 18.44H25.8475Z" fill="white"/>
<path d="M25.8475 18.44V19.44H26.832L26.8474 18.4556L25.8475 18.44ZM26.6075 13.88L27.5484 14.2187L27.5524 14.2075L27.5562 14.1962L26.6075 13.88ZM27.3675 12.2L26.4993 11.7039L26.4993 11.7039L27.3675 12.2ZM28.5675 10.72L27.9031 9.97259L27.9031 9.97259L28.5675 10.72ZM30.2475 9.68L30.6321 10.6031L30.6321 10.6031L30.2475 9.68ZM32.5275 9.28L32.6062 8.2831L32.5669 8.28H32.5275V9.28ZM35.3675 10.28L35.929 9.4525L35.9222 9.44795L35.3675 10.28ZM37.4875 12.68L36.6337 13.2006L36.6412 13.2129L36.6491 13.225L37.4875 12.68ZM38.8875 17.2L39.8813 17.088L39.88 17.0776L38.8875 17.2ZM39.2475 22.56L38.2476 22.5759L39.2475 22.56ZM39.2075 27L40.2061 27.0535L40.2066 27.0416L39.2075 27ZM38.8875 31.16L39.8801 31.2815L39.8812 31.2726L39.8821 31.2636L38.8875 31.16ZM37.8875 34.68L36.9884 34.242L36.9827 34.2542L37.8875 34.68ZM37.0875 36L37.8684 36.6247L37.8781 36.6125L37.8875 36.6L37.0875 36ZM35.9275 37.12L36.5275 37.92L36.535 37.9144L35.9275 37.12ZM34.4475 37.88L34.1313 36.9313L34.1313 36.9313L34.4475 37.88ZM30.4075 37.76L30.0088 38.6771L30.0088 38.6771L30.4075 37.76ZM28.8075 36.72L28.1004 37.4271L28.1111 37.4378L28.1221 37.4482L28.8075 36.72ZM27.6475 35.24L26.7617 35.704L26.7751 35.7297L26.79 35.7545L27.6475 35.24ZM26.8875 33.56L25.9466 33.8987L25.9497 33.9074L25.953 33.916L26.8875 33.56ZM26.0075 29.04L27.0055 28.9766L26.946 28.04H26.0075V29.04ZM24.5275 29.04V28.04H23.6169L23.5319 28.9467L24.5275 29.04ZM23.4875 33.56L24.4066 33.9539L24.4101 33.9459L24.4133 33.9379L23.4875 33.56ZM22.6075 35.24L21.7572 34.7136L21.75 34.7255L22.6075 35.24ZM21.4475 36.68L22.1091 37.4298L22.1212 37.4192L22.1329 37.4082L21.4475 36.68ZM19.8475 37.68L20.2462 38.5971L19.8475 37.68ZM17.7675 38.08L17.7431 39.0797L17.7553 39.08H17.7675V38.08ZM14.8075 37.24L14.2667 38.0812L14.2779 38.0883L14.2892 38.0952L14.8075 37.24ZM13.6475 36.36L12.967 37.0928L12.9796 37.1045L12.9926 37.1157L13.6475 36.36ZM12.6075 35.04L11.7393 35.5361L11.7445 35.5454L11.75 35.5545L12.6075 35.04ZM11.7675 33.12L10.806 33.3947L10.8119 33.4156L10.8188 33.4362L11.7675 33.12ZM11.3275 30.52L12.3243 30.4392L12.3233 30.4284L11.3275 30.52ZM11.0075 24.4L10.0076 24.3851L10.0075 24.3925V24.4H11.0075ZM11.1675 19.84L10.1701 19.7675L10.1695 19.7763L11.1675 19.84ZM11.6075 16.04L12.5925 16.2124L12.5933 16.2078L11.6075 16.04ZM12.6875 12.68L13.5771 13.1368L13.5819 13.1272L12.6875 12.68ZM13.4475 11.44L12.6666 10.8153L12.6535 10.8317L12.6411 10.8486L13.4475 11.44ZM14.5275 10.36L13.9275 9.56L13.915 9.56937L13.9028 9.57913L14.5275 10.36ZM15.9275 9.6L15.5972 8.65614L15.5894 8.65884L15.5818 8.66166L15.9275 9.6ZM19.9675 9.72L19.5829 10.6431L19.5829 10.6431L19.9675 9.72ZM21.6475 10.76L22.3119 10.0126L22.3119 10.0126L21.6475 10.76ZM22.8075 12.24L21.9217 12.704L21.9351 12.7297L21.95 12.7545L22.8075 12.24ZM23.6075 13.88L24.5484 13.5413L24.5453 13.5326L24.542 13.524L23.6075 13.88ZM24.3275 18.44H23.3275V19.44H24.3275V18.44ZM26.8474 18.4556C26.8727 16.8373 27.1125 15.4296 27.5484 14.2187L25.6666 13.5413C25.1425 14.9971 24.8757 16.6293 24.8476 18.4244L26.8474 18.4556ZM27.5562 14.1962C27.7202 13.7041 27.9454 13.2042 28.2357 12.6961L26.4993 11.7039C26.1496 12.3158 25.8681 12.9358 25.6588 13.5638L27.5562 14.1962ZM28.2357 12.6961C28.5021 12.23 28.8334 11.8216 29.2319 11.4674L27.9031 9.97259C27.3416 10.4717 26.8729 11.05 26.4993 11.7039L28.2357 12.6961ZM29.2319 11.4674C29.6226 11.12 30.0863 10.8305 30.6321 10.6031L29.8629 8.75692C29.1287 9.06284 28.4724 9.46662 27.9031 9.97259L29.2319 11.4674ZM30.6321 10.6031C31.1222 10.3989 31.7454 10.28 32.5275 10.28V8.28C31.5496 8.28 30.6528 8.42781 29.8629 8.75692L30.6321 10.6031ZM32.4488 10.2769C33.285 10.3429 34.0688 10.6161 34.8128 11.112L35.9222 9.44795C34.9062 8.7706 33.7967 8.37709 32.6062 8.2831L32.4488 10.2769ZM34.806 11.1075C35.3957 11.5076 36.0125 12.1818 36.6337 13.2006L38.3413 12.1594C37.6292 10.9916 36.8326 10.0657 35.929 9.45252L34.806 11.1075ZM36.6491 13.225C37.2269 14.1139 37.6645 15.4526 37.895 17.3224L39.88 17.0776C39.6305 15.0541 39.1348 13.3794 38.3259 12.135L36.6491 13.225ZM37.8938 17.312C38.104 19.1775 38.2215 20.9319 38.2476 22.5759L40.2474 22.5441C40.2201 20.8281 40.0977 19.0091 39.8812 17.088L37.8938 17.312ZM38.2476 22.5759C38.2741 24.2422 38.2607 25.7023 38.2084 26.9584L40.2066 27.0416C40.261 25.7377 40.2743 24.2378 40.2474 22.5441L38.2476 22.5759ZM38.2089 26.9465C38.1297 28.4257 38.0242 29.7955 37.8929 31.0564L39.8821 31.2636C40.0174 29.9645 40.1253 28.561 40.2061 27.0535L38.2089 26.9465ZM37.8949 31.0385C37.7465 32.2501 37.4405 33.3143 36.9885 34.242L38.7865 35.118C39.3478 33.9657 39.7085 32.6832 39.8801 31.2815L37.8949 31.0385ZM36.9827 34.2542C36.8001 34.6422 36.5693 35.0242 36.2875 35.4L37.8875 36.6C38.2457 36.1225 38.5483 35.6244 38.7923 35.1058L36.9827 34.2542ZM36.3066 35.3753C36.0427 35.7052 35.7161 36.0228 35.3201 36.3256L36.535 37.9144C37.0455 37.5239 37.4923 37.0948 37.8684 36.6247L36.3066 35.3753ZM35.3275 36.32C34.9955 36.569 34.6001 36.775 34.1313 36.9313L34.7637 38.8287C35.4149 38.6116 36.0062 38.311 36.5275 37.92L35.3275 36.32ZM34.1313 36.9313C33.6928 37.0775 33.1628 37.16 32.5275 37.16V39.16C33.3322 39.16 34.0822 39.0559 34.7637 38.8287L34.1313 36.9313ZM32.5275 37.16C31.8383 37.16 31.2716 37.0453 30.8062 36.8429L30.0088 38.6771C30.7701 39.0081 31.6167 39.16 32.5275 39.16V37.16ZM30.8062 36.8429C30.2907 36.6188 29.8562 36.3338 29.4929 35.9918L28.1221 37.4482C28.6655 37.9596 29.2976 38.3679 30.0088 38.6771L30.8062 36.8429ZM29.5146 36.0129C29.1173 35.6156 28.7816 35.1866 28.505 34.7255L26.79 35.7545C27.1534 36.3601 27.591 36.9177 28.1004 37.4271L29.5146 36.0129ZM28.5333 34.776C28.2573 34.2491 28.0205 33.7251 27.822 33.204L25.953 33.916C26.1812 34.5149 26.451 35.1109 26.7617 35.704L28.5333 34.776ZM27.8284 33.2213C27.3856 31.9914 27.1073 30.5797 27.0055 28.9766L25.0095 29.1034C25.1211 30.8603 25.4294 32.462 25.9466 33.8987L27.8284 33.2213ZM26.0075 28.04H24.5275V30.04H26.0075V28.04ZM23.5319 28.9467C23.3791 30.5757 23.0509 31.9834 22.5617 33.1821L24.4133 33.9379C24.9907 32.5233 25.3559 30.9176 25.5231 29.1333L23.5319 28.9467ZM22.5684 33.1661C22.3495 33.6768 22.0798 34.1926 21.7572 34.7136L23.4578 35.7664C23.8286 35.1674 24.1455 34.5632 24.4066 33.9539L22.5684 33.1661ZM21.75 34.7255C21.4773 35.18 21.1486 35.5881 20.7621 35.9518L22.1329 37.4082C22.6531 36.9186 23.0977 36.3667 23.465 35.7545L21.75 34.7255ZM20.7859 35.9302C20.4187 36.2541 19.9764 36.5335 19.4488 36.7629L20.2462 38.5971C20.9453 38.2931 21.5696 37.9059 22.1091 37.4298L20.7859 35.9302ZM19.4488 36.7629C18.9794 36.967 18.4249 37.08 17.7675 37.08V39.08C18.6567 39.08 19.4889 38.9263 20.2462 38.5971L19.4488 36.7629ZM17.7919 37.0803C16.8616 37.0576 16.0472 36.822 15.3258 36.3848L14.2892 38.0952C15.3278 38.7247 16.4867 39.0491 17.7431 39.0797L17.7919 37.0803ZM15.3483 36.3988C15.0217 36.1889 14.6731 35.9255 14.3024 35.6043L12.9926 37.1157C13.4219 37.4878 13.8466 37.8111 14.2667 38.0812L15.3483 36.3988ZM14.328 35.6272C14.0368 35.3569 13.7468 34.9952 13.465 34.5255L11.75 35.5545C12.1082 36.1515 12.5115 36.6698 12.967 37.0928L14.328 35.6272ZM13.4757 34.5439C13.1935 34.05 12.9389 33.4719 12.7162 32.8038L10.8188 33.4362C11.0761 34.2081 11.3815 34.91 11.7393 35.5361L13.4757 34.5439ZM12.729 32.8453C12.5379 32.1764 12.4003 31.3771 12.3242 30.4392L10.3308 30.6008C10.4147 31.6362 10.5704 32.5703 10.806 33.3947L12.729 32.8453ZM12.3233 30.4284C12.1119 28.1298 12.0075 26.1215 12.0075 24.4H10.0075C10.0075 26.1985 10.1164 28.2702 10.3317 30.6116L12.3233 30.4284ZM12.0074 24.4149C12.0339 22.6384 12.0868 21.1356 12.1655 19.9037L10.1695 19.7763C10.0882 21.051 10.0344 22.5883 10.0076 24.3851L12.0074 24.4149ZM12.1649 19.9125C12.2699 18.4684 12.4133 17.2367 12.5925 16.2124L10.6225 15.8676C10.4284 16.9766 10.2784 18.2783 10.1701 19.7675L12.1649 19.9125ZM12.5933 16.2078C12.792 15.0407 13.1233 14.0204 13.5771 13.1368L11.7979 12.2232C11.2384 13.3129 10.8497 14.5326 10.6217 15.8722L12.5933 16.2078ZM13.5819 13.1272C13.7691 12.753 13.9926 12.3877 14.2539 12.0314L12.6411 10.8486C12.3157 11.2923 12.0326 11.7537 11.7931 12.2328L13.5819 13.1272ZM14.2284 12.0647C14.5022 11.7224 14.8099 11.4147 15.1522 11.1409L13.9028 9.57913C13.4451 9.94526 13.0328 10.3576 12.6666 10.8153L14.2284 12.0647ZM15.1275 11.16C15.4756 10.8989 15.8564 10.6919 16.2732 10.5383L15.5818 8.66166C14.9852 8.88144 14.4327 9.18107 13.9275 9.56L15.1275 11.16ZM16.2578 10.5439C16.6719 10.3989 17.1453 10.32 17.6875 10.32V8.32C16.9497 8.32 16.2497 8.42774 15.5972 8.65614L16.2578 10.5439ZM17.6875 10.32C18.4696 10.32 19.0928 10.4389 19.5829 10.6431L20.3521 8.79692C19.5622 8.46781 18.6654 8.32 17.6875 8.32V10.32ZM19.5829 10.6431C20.1287 10.8705 20.5924 11.16 20.9831 11.5074L22.3119 10.0126C21.7426 9.50662 21.0863 9.10284 20.3521 8.79692L19.5829 10.6431ZM20.9831 11.5074C21.3743 11.8551 21.6853 12.2528 21.9217 12.704L23.6933 11.776C23.343 11.1072 22.8807 10.5183 22.3119 10.0126L20.9831 11.5074ZM21.95 12.7545C22.2409 13.2393 22.4814 13.733 22.673 14.236L24.542 13.524C24.3069 12.907 24.0141 12.3074 23.665 11.7255L21.95 12.7545ZM22.6666 14.2187C23.1004 15.4238 23.3275 16.8259 23.3275 18.44H25.3275C25.3275 16.6408 25.0746 15.0029 24.5484 13.5413L22.6666 14.2187ZM24.3275 19.44H25.8475V17.44H24.3275V19.44Z" fill="black" fill-opacity="0.1"/>
</svg>
